<svg width="46" height="27" viewBox="0 0 46 27" fill="none" xmlns="http://www.w3.org/2000/svg">
<path d="M44.9917 5.60423L24.6917 25.9647C24.45 26.2063 24.1882 26.3779 23.9062 26.4794C23.6243 26.5809 23.3222 26.6308 23 26.6292C22.6778 26.6292 22.3757 26.5793 22.0937 26.4794C21.8118 26.3795 21.55 26.2079 21.3083 25.9647L0.947914 5.60424C0.384025 5.04035 0.10208 4.33549 0.10208 3.48965C0.10208 2.64382 0.404164 1.91882 1.00833 1.31466C1.6125 0.710489 2.31736 0.408405 3.12291 0.408405C3.92847 0.408405 4.63333 0.710489 5.2375 1.31466L23 19.0772L40.7625 1.31465C41.3264 0.750765 42.0216 0.468819 42.8481 0.468819C43.6746 0.468819 44.3891 0.770903 44.9917 1.37507C45.5958 1.97924 45.8979 2.6841 45.8979 3.48965C45.8979 4.29521 45.5958 5.00007 44.9917 5.60423Z" fill="white"/>
</svg>
