<svg width="32" height="19" viewBox="0 0 32 19" fill="none" xmlns="http://www.w3.org/2000/svg">
<path d="M31.1667 3.79172L17.1667 17.8334C17 18.0001 16.8195 18.1184 16.625 18.1884C16.4306 18.2584 16.2223 18.2928 16 18.2917C15.7778 18.2917 15.5695 18.2573 15.375 18.1884C15.1806 18.1195 15 18.0012 14.8334 17.8334L0.791707 3.79172C0.402818 3.40283 0.208373 2.91672 0.208373 2.33339C0.208373 1.75006 0.416707 1.25006 0.833373 0.833389C1.25004 0.416723 1.73615 0.208389 2.29171 0.208389C2.84726 0.208389 3.33337 0.416723 3.75004 0.833389L16 13.0834L28.25 0.833388C28.6389 0.444499 29.1184 0.250054 29.6884 0.250054C30.2584 0.250054 30.7512 0.458388 31.1667 0.875054C31.5834 1.29172 31.7917 1.77783 31.7917 2.33339C31.7917 2.88894 31.5834 3.37505 31.1667 3.79172Z" fill="white"/>
</svg>
