<svg width="45" height="45" viewBox="0 0 45 45" fill="none" xmlns="http://www.w3.org/2000/svg">
<path d="M27.6718 17.5715C26.7542 16.8683 25.6426 16.4641 24.4876 16.4136L24.3168 16.5786C26.2447 17.1286 27.1797 17.9884 27.1797 17.9884C25.8547 17.3223 24.4035 16.9451 22.9219 16.8817C21.4403 16.8183 19.9622 17.0702 18.5852 17.6207C18.1799 17.7944 17.9339 17.9102 17.9049 17.9247C17.9628 17.8697 18.8978 16.9955 20.8894 16.5207L20.762 16.4136C19.5884 16.4549 18.4566 16.8595 17.5228 17.5715C16.4611 19.5532 15.8857 21.7588 15.8439 24.0065C15.8439 24.0065 16.7789 25.6044 19.3291 25.6768C19.3291 25.6768 19.7026 25.1876 20.0789 24.7592C18.6315 24.3278 18.0873 23.471 18.0873 23.471L18.5649 23.7142C19.9689 24.2931 21.4597 25.0023 24.0968 24.5826C24.6695 24.4749 25.2301 24.3101 25.7699 24.0905C26.2164 23.8902 26.6513 23.6651 27.0726 23.416C27.0726 23.416 26.5139 24.2844 25.0173 24.7013C25.327 25.0978 25.7526 25.5986 25.7526 25.5986C28.3086 25.5436 29.3015 23.9486 29.3565 24.0181C29.3164 21.7657 28.7388 19.5555 27.6718 17.5715ZM20.4523 22.9094C20.1275 22.9094 19.8161 22.7804 19.5865 22.5508C19.3568 22.3212 19.2278 22.0097 19.2278 21.685C19.2278 21.3602 19.3568 21.0488 19.5865 20.8191C19.8161 20.5895 20.1275 20.4605 20.4523 20.4605C20.7671 20.4758 21.064 20.6116 21.2814 20.8398C21.4988 21.0681 21.6201 21.3712 21.6201 21.6864C21.6201 22.0016 21.4988 22.3047 21.2814 22.5329C21.064 22.7612 20.7671 22.897 20.4523 22.9123V22.9094ZM24.6844 22.9094C24.3596 22.9094 24.0482 22.7804 23.8186 22.5508C23.5889 22.3212 23.4599 22.0097 23.4599 21.685C23.4599 21.3602 23.5889 21.0488 23.8186 20.8191C24.0482 20.5895 24.3596 20.4605 24.6844 20.4605C24.9992 20.4758 25.2961 20.6116 25.5135 20.8398C25.7309 21.0681 25.8522 21.3712 25.8522 21.6864C25.8522 22.0016 25.7309 22.3047 25.5135 22.5329C25.2961 22.7612 24.9992 22.897 24.6844 22.9123V22.9094Z" fill="#B7BECD"/>
<path d="M22.5684 0.203125C18.2172 0.203125 13.9637 1.4934 10.3458 3.91079C6.72794 6.32818 3.90815 9.76411 2.24302 13.7841C0.577892 17.8041 0.142218 22.2275 0.991093 26.4951C1.83997 30.7627 3.93526 34.6827 7.01202 37.7595C10.0888 40.8362 14.0088 42.9315 18.2764 43.7804C22.544 44.6293 26.9674 44.1936 30.9874 42.5285C35.0074 40.8633 38.4433 38.0436 40.8607 34.4257C43.2781 30.8078 44.5684 26.5543 44.5684 22.2031C44.5684 16.3684 42.2505 10.7726 38.1247 6.64678C33.9989 2.52098 28.4031 0.203125 22.5684 0.203125ZM32.6507 33.2031L30.1584 31.1189L28.7892 29.8915L27.2955 28.6092L27.9207 30.6355H14.851C14.5459 30.6447 14.2421 30.5931 13.9572 30.4835C13.6724 30.3739 13.4122 30.2086 13.192 29.9973C12.9718 29.786 12.7959 29.5329 12.6747 29.2528C12.5535 28.9727 12.4893 28.6712 12.486 28.366V13.4755C12.5034 12.8617 12.7615 12.2794 13.2045 11.8543C13.6475 11.4292 14.2399 11.1953 14.8539 11.2031H30.2249C30.8412 11.2032 31.4345 11.4372 31.8849 11.858C32.3352 12.2788 32.6089 12.8548 32.6507 13.4697V33.2031Z" fill="#B7BECD"/>
</svg>
