<svg width="45" height="45" viewBox="0 0 45 45" fill="none" xmlns="http://www.w3.org/2000/svg">
<path d="M22.5684 0.203125C18.2172 0.203125 13.9637 1.4934 10.3458 3.91079C6.72794 6.32818 3.90815 9.76411 2.24302 13.7841C0.577892 17.8041 0.142218 22.2275 0.991093 26.4951C1.83997 30.7627 3.93527 34.6827 7.01202 37.7595C10.0888 40.8362 14.0088 42.9315 18.2764 43.7804C22.544 44.6293 26.9674 44.1936 30.9874 42.5285C35.0074 40.8633 38.4433 38.0436 40.8607 34.4257C43.2781 30.8078 44.5684 26.5543 44.5684 22.2031C44.5684 16.3684 42.2505 10.7726 38.1247 6.64678C33.9989 2.52098 28.4031 0.203125 22.5684 0.203125ZM28.1436 20.1189L27.7789 23.1844C27.7632 23.3267 27.6953 23.4581 27.5884 23.5532C27.4814 23.6484 27.3431 23.7006 27.1999 23.6997H24.0157V32.7892C24.0165 32.8977 23.9743 33.0021 23.8984 33.0797C23.8225 33.1572 23.719 33.2016 23.6105 33.2031H20.3684C20.3144 33.2024 20.2611 33.191 20.2115 33.1696C20.1619 33.1483 20.117 33.1174 20.0794 33.0786C20.0418 33.0399 20.0121 32.9942 19.9922 32.944C19.9722 32.8939 19.9623 32.8403 19.9631 32.7863L19.9805 23.6997H17.5692C17.4156 23.6997 17.2684 23.6387 17.1598 23.5301C17.0512 23.4216 16.9902 23.2743 16.9902 23.1208V20.0581C16.9902 19.9046 17.0512 19.7573 17.1598 19.6487C17.2684 19.5402 17.4156 19.4792 17.5692 19.4792H19.9631V16.5092C19.9631 13.0731 22.0097 11.2031 25 11.2031H27.4518C27.6053 11.2031 27.7526 11.2641 27.8612 11.3727C27.9697 11.4813 28.0307 11.6285 28.0307 11.7821V14.3613C28.0307 14.5148 27.9697 14.6621 27.8612 14.7707C27.7526 14.8792 27.6053 14.9402 27.4518 14.9402H25.9494C24.3226 14.9663 24.0157 15.745 24.0157 16.9087V19.4705H27.5821C27.6628 19.4723 27.7423 19.4911 27.8154 19.5255C27.8885 19.5599 27.9536 19.6092 28.0065 19.6703C28.0594 19.7313 28.0989 19.8028 28.1226 19.8801C28.1462 19.9573 28.1534 20.0387 28.1436 20.1189Z" fill="#B7BECD"/>
</svg>
