<svg width="135" height="23" viewBox="0 0 135 23" fill="none" xmlns="http://www.w3.org/2000/svg">
<path d="M44.6358 21.5417C43.5199 21.5417 42.6156 20.6647 42.6156 19.5835V2.54546C42.6156 1.46392 43.5201 0.58728 44.6358 0.58728C45.7514 0.58728 46.6559 1.46392 46.6559 2.54546V19.5835C46.6559 20.6647 45.7514 21.5417 44.6358 21.5417Z" fill="#FEFEFE"/>
<path d="M56.3528 4.50396H44.6358C43.5199 4.50396 42.6156 3.62717 42.6156 2.54546C42.6156 1.46392 43.5201 0.58728 44.6358 0.58728H56.3528C57.4685 0.58728 58.3729 1.46392 58.3729 2.54546C58.3729 3.62717 57.4683 4.50396 56.3528 4.50396Z" fill="#FEFEFE"/>
<path d="M56.3528 21.5416H44.6358C43.5199 21.5416 42.6156 20.6646 42.6156 19.5834C42.6156 18.5017 43.5201 17.6248 44.6358 17.6248H56.3528C57.4685 17.6248 58.3729 18.5018 58.3729 19.5834C58.3729 20.6646 57.4683 21.5416 56.3528 21.5416Z" fill="#FEFEFE"/>
<path d="M54.6356 13.0232H44.6358C43.5199 13.0232 42.6156 12.1461 42.6156 11.0644C42.6156 9.98299 43.5201 9.1062 44.6358 9.1062H54.6356C55.7513 9.1062 56.6558 9.98299 56.6558 11.0644C56.6558 12.1461 55.7513 13.0232 54.6356 13.0232Z" fill="#FEFEFE"/>
<path d="M20.7875 21.6803C19.6717 21.6803 18.7672 20.8037 18.7672 19.722V2.68456C18.7672 1.60271 19.6717 0.726074 20.7875 0.726074C21.9032 0.726074 22.8077 1.60271 22.8077 2.68456V19.722C22.8078 20.8037 21.9032 21.6803 20.7875 21.6803Z" fill="#FEFEFE"/>
<path d="M28.7473 4.64275H20.7875C19.6717 4.64275 18.7672 3.76566 18.7672 2.68456C18.7672 1.60271 19.6717 0.726074 20.7875 0.726074H28.7473C29.8631 0.726074 30.7674 1.60271 30.7674 2.68456C30.7674 3.76566 29.8631 4.64275 28.7473 4.64275Z" fill="#FEFEFE"/>
<path d="M28.7437 21.6803H20.7875C19.6717 21.6803 18.7672 20.8036 18.7672 19.7219C18.7672 18.6402 19.6717 17.7633 20.7875 17.7633H28.7437C29.8595 17.7633 30.7638 18.6404 30.7638 19.7219C30.7638 20.8035 29.8595 21.6803 28.7437 21.6803Z" fill="#FEFEFE"/>
<path d="M36.854 13.1612C35.738 13.1612 34.8338 12.2846 34.8338 11.2029C34.8338 7.40185 32.2424 4.64275 28.672 4.64275C27.5563 4.64275 26.652 3.76566 26.652 2.68456C26.652 1.60271 27.5563 0.726074 28.672 0.726074C34.4882 0.726074 38.8741 5.23037 38.8741 11.203C38.8741 12.2846 37.9695 13.1612 36.854 13.1612Z" fill="#FEFEFE"/>
<path d="M28.672 21.6803C27.5563 21.6803 26.652 20.8037 26.652 19.722C26.652 18.6403 27.5563 17.7634 28.672 17.7634C32.2424 17.7634 34.8338 15.0046 34.8338 11.2029C34.8338 10.1217 35.7381 9.24487 36.854 9.24487C37.9695 9.24487 38.8741 10.1217 38.8741 11.2029C38.8741 17.1762 34.4884 21.6803 28.672 21.6803Z" fill="#FEFEFE"/>
<path d="M132.549 21.5718C131.976 21.5718 131.407 21.3366 131.008 20.8801L116.099 3.8424C115.378 3.01771 115.482 1.78183 116.333 1.08193C117.184 0.382324 118.459 0.483943 119.18 1.30878L134.089 18.3465C134.81 19.1713 134.706 20.4068 133.855 21.1068C133.475 21.4188 133.011 21.5718 132.549 21.5718Z" fill="#FEFEFE"/>
<path d="M132.548 21.5717C131.432 21.5717 130.528 20.6946 130.528 19.6134V2.57537C130.528 1.49382 131.432 0.617188 132.548 0.617188C133.664 0.617188 134.568 1.49382 134.568 2.57537V19.6134C134.568 20.6946 133.664 21.5717 132.548 21.5717Z" fill="#FEFEFE"/>
<path d="M117.64 21.5717C116.524 21.5717 115.62 20.6946 115.62 19.6134V2.57537C115.62 1.49382 116.524 0.617188 117.64 0.617188C118.756 0.617188 119.66 1.49382 119.66 2.57537V19.6134C119.66 20.6946 118.756 21.5717 117.64 21.5717Z" fill="#FEFEFE"/>
<path d="M2.58852 21.6803C1.47267 21.6803 0.568359 20.8037 0.568359 19.722V2.68426C0.568359 1.60271 1.47282 0.726074 2.58852 0.726074C3.70421 0.726074 4.60867 1.60271 4.60867 2.68426V19.7221C4.60867 20.8037 3.70421 21.6803 2.58852 21.6803Z" fill="#FEFEFE"/>
<path d="M93.1734 13.1612C92.0575 13.1612 91.1532 12.2845 91.1532 11.2028C91.1532 5.24373 96.1544 0.395874 102.301 0.395874C103.417 0.395874 104.322 1.2722 104.322 2.35406C104.322 3.43561 103.417 4.3124 102.301 4.3124C98.3822 4.3124 95.1934 7.40363 95.1934 11.2028C95.1934 12.2845 94.289 13.1612 93.1734 13.1612Z" fill="#FEFEFE"/>
<path d="M102.301 22.0102C96.1546 22.0102 91.1532 17.1621 91.1532 11.2028C91.1532 10.1214 92.0575 9.24463 93.1734 9.24463C94.2892 9.24463 95.1935 10.1214 95.1935 11.2028C95.1935 15.0023 98.3822 18.0936 102.302 18.0936C103.417 18.0936 104.322 18.9705 104.322 20.0519C104.322 21.1334 103.417 22.0102 102.301 22.0102Z" fill="#FEFEFE"/>
<path d="M102.301 22.0102C101.186 22.0102 100.281 21.1335 100.281 20.0519C100.281 18.9705 101.186 18.0936 102.301 18.0936C104.189 18.0936 106.083 17.3966 107.366 16.2291C108.18 15.489 109.458 15.5286 110.222 16.3171C110.985 17.106 110.945 18.3454 110.131 19.0854C108.118 20.9168 105.191 22.0102 102.301 22.0102Z" fill="#FEFEFE"/>
<path d="M108.631 6.78443C108.127 6.78443 107.622 6.60298 107.229 6.23749C105.899 4.99597 104.149 4.31252 102.301 4.31252C101.186 4.31252 100.281 3.43573 100.281 2.35418C100.281 1.27233 101.186 0.395996 102.301 0.395996C105.199 0.395996 107.944 1.4681 110.031 3.41516C110.836 4.16504 110.86 5.40488 110.086 6.18401C109.69 6.58379 109.16 6.78443 108.631 6.78443Z" fill="#FEFEFE"/>
<path d="M108.749 19.6154C107.633 19.6154 106.728 18.7386 106.728 17.6572V11.3779C106.728 10.2963 107.633 9.41956 108.749 9.41956C109.864 9.41956 110.769 10.2963 110.769 11.3779V17.6572C110.769 18.7386 109.864 19.6154 108.749 19.6154Z" fill="#FEFEFE"/>
<path d="M108.749 13.3364H101.554C100.439 13.3364 99.5343 12.4596 99.5343 11.378C99.5343 10.2965 100.439 9.41968 101.554 9.41968H108.749C109.864 9.41968 110.769 10.2965 110.769 11.378C110.769 12.4596 109.864 13.3364 108.749 13.3364Z" fill="#FEFEFE"/>
<path d="M76.0308 17.7598C74.9149 17.7598 74.0106 16.8827 74.0106 15.8015C74.0106 15.2888 74.0106 13.9263 68.977 12.908C67.8848 12.6872 67.1841 11.6499 67.412 10.591C67.6399 9.53232 68.71 8.85267 69.8024 9.07404C72.2608 9.57117 74.0117 10.1989 75.3141 11.049C77.5758 12.5251 78.0508 14.4483 78.0508 15.8015C78.0508 16.8829 77.1465 17.7598 76.0308 17.7598Z" fill="#FEFEFE"/>
<path d="M69.9342 22.1995C69.9169 22.1995 69.899 22.1995 69.8812 22.199C66.4073 22.1127 63.977 20.8542 62.058 19.6345C61.1249 19.0414 60.8647 17.8274 61.4764 16.9229C62.0884 16.0184 63.3405 15.7658 64.2735 16.3591C65.7895 17.3225 67.5307 18.2225 69.9851 18.2837C71.1005 18.3116 71.9812 19.2105 71.9528 20.2914C71.9242 21.3556 71.026 22.1995 69.9342 22.1995Z" fill="#FEFEFE"/>
<path d="M70.222 22.2032C70.1101 22.2032 69.9966 22.202 69.8813 22.1991C68.7661 22.1712 67.8852 21.2724 67.9138 20.1914C67.9424 19.1098 68.8718 18.2516 69.985 18.2838C71.5123 18.3212 72.6758 18.003 73.3538 17.3623C73.8969 16.8494 74.0108 16.2305 74.0108 15.8015C74.0108 14.7198 74.9152 13.8431 76.031 13.8431C77.1469 13.8431 78.0512 14.7198 78.0512 15.8015C78.0512 17.4732 77.385 19.0234 76.1745 20.167C75.18 21.1064 73.349 22.2032 70.222 22.2032Z" fill="#FEFEFE"/>
<path d="M69.3915 12.9496C69.2498 12.9496 69.1058 12.9352 68.9618 12.9051C67.0921 12.5122 65.7084 12.0102 64.6075 11.3259C62.2627 9.86854 61.8114 7.92818 61.846 6.55686C61.8958 4.56881 62.5605 2.99775 63.8214 1.88741C65.2868 0.597137 67.4785 0.0433362 70.3335 0.242765C71.4462 0.319856 72.2839 1.25759 72.2039 2.33609C72.1236 3.41505 71.1574 4.22632 70.044 4.14908C68.3579 4.03223 67.1452 4.25238 66.5381 4.78698C66.3847 4.92151 65.9182 5.33255 65.8851 6.65223C65.8752 7.04545 65.8452 8.24218 69.8177 9.07707C70.9081 9.30606 71.6003 10.3489 71.3637 11.4058C71.1588 12.3231 70.3218 12.9496 69.3915 12.9496Z" fill="#FEFEFE"/>
<path d="M75.0176 5.70701C74.7049 5.70701 74.3881 5.63662 74.091 5.48762C72.4672 4.67345 71.1057 4.22309 70.0438 4.1492C68.9311 4.07181 68.0939 3.13438 68.1737 2.05588C68.2539 0.97677 69.219 0.164581 70.3333 0.24289C71.9678 0.356545 73.8047 0.934417 75.9473 2.00896C76.9386 2.50593 77.326 3.68773 76.814 4.64846C76.4544 5.32094 75.7491 5.70701 75.0176 5.70701Z" fill="#FEFEFE"/>
<path d="M84.6194 21.6803C83.5036 21.6803 82.5992 20.8037 82.5992 19.722V2.68426C82.5992 1.60271 83.5036 0.726074 84.6194 0.726074C85.7352 0.726074 86.6394 1.60271 86.6394 2.68426V19.7221C86.6394 20.8037 85.7352 21.6803 84.6194 21.6803Z" fill="#FEFEFE"/>
</svg>
