<svg width="51" height="51" viewBox="0 0 51 51" fill="none" xmlns="http://www.w3.org/2000/svg">
<rect x="0.568359" y="0.203125" width="50" height="50" rx="25" fill="#FEFEFE"/>
<path d="M16.4685 28.3281L24.8685 19.9031C24.9685 19.8031 25.0768 19.7321 25.1935 19.6901C25.3101 19.6481 25.4351 19.6274 25.5685 19.6281C25.7018 19.6281 25.8268 19.6487 25.9435 19.6901C26.0601 19.7314 26.1685 19.8024 26.2685 19.9031L34.6935 28.3281C34.9268 28.5614 35.0435 28.8531 35.0435 29.2031C35.0435 29.5531 34.9185 29.8531 34.6685 30.1031C34.4185 30.3531 34.1268 30.4781 33.7935 30.4781C33.4601 30.4781 33.1685 30.3531 32.9185 30.1031L25.5685 22.7531L18.2185 30.1031C17.9851 30.3364 17.6975 30.4531 17.3555 30.4531C17.0135 30.4531 16.7178 30.3281 16.4685 30.0781C16.2185 29.8281 16.0935 29.5364 16.0935 29.2031C16.0935 28.8697 16.2185 28.5781 16.4685 28.3281Z" fill="#0F122B"/>
</svg>
