<svg width="45" height="45" viewBox="0 0 45 45" fill="none" xmlns="http://www.w3.org/2000/svg">
<path d="M22.5684 25.6797C24.4884 25.6797 26.045 24.1232 26.045 22.2031C26.045 20.2831 24.4884 18.7266 22.5684 18.7266C20.6483 18.7266 19.0918 20.2831 19.0918 22.2031C19.0918 24.1232 20.6483 25.6797 22.5684 25.6797Z" fill="#B7BECD"/>
<path d="M27.0146 13.4176H18.122C16.9704 13.4176 15.866 13.8751 15.0517 14.6894C14.2374 15.5037 13.7799 16.6081 13.7799 17.7597V26.6494C13.7799 27.801 14.2374 28.9055 15.0517 29.7198C15.866 30.5341 16.9704 30.9916 18.122 30.9916H27.0146C28.1662 30.9916 29.2707 30.5341 30.085 29.7198C30.8993 28.9055 31.3568 27.801 31.3568 26.6494V17.7568C31.356 16.6057 30.8982 15.502 30.084 14.6884C29.2697 13.8747 28.1657 13.4176 27.0146 13.4176ZM22.5683 27.8942C21.4426 27.8948 20.342 27.5615 19.4058 26.9365C18.4695 26.3115 17.7396 25.4229 17.3084 24.383C16.8772 23.3432 16.7641 22.1988 16.9834 21.0946C17.2026 19.9905 17.7444 18.9762 18.5402 18.18C19.336 17.3838 20.3501 16.8415 21.4541 16.6216C22.5581 16.4018 23.7026 16.5143 24.7426 16.945C25.7827 17.3757 26.6717 18.1051 27.2972 19.041C27.9226 19.977 28.2565 21.0774 28.2565 22.2031C28.255 23.7115 27.6553 25.1577 26.5889 26.2246C25.5226 27.2915 24.0767 27.8919 22.5683 27.8942ZM28.2912 17.9189C28.0127 17.9195 27.7403 17.8374 27.5085 17.683C27.2767 17.5287 27.096 17.309 26.9891 17.0518C26.8823 16.7946 26.8542 16.5115 26.9084 16.2383C26.9626 15.9652 27.0966 15.7142 27.2935 15.5173C27.4905 15.3204 27.7414 15.1863 28.0146 15.1321C28.2878 15.0779 28.5709 15.106 28.828 15.2129C29.0852 15.3197 29.3049 15.5005 29.4593 15.7323C29.6136 15.9641 29.6957 16.2365 29.6952 16.515C29.6944 16.8871 29.5462 17.2437 29.2831 17.5069C29.02 17.77 28.6633 17.9182 28.2912 17.9189Z" fill="#B7BECD"/>
<path d="M22.5684 0.203125C18.2172 0.203125 13.9637 1.4934 10.3458 3.91079C6.72794 6.32818 3.90815 9.76411 2.24302 13.7841C0.577892 17.8041 0.142218 22.2275 0.991093 26.4951C1.83997 30.7627 3.93526 34.6827 7.01202 37.7595C10.0888 40.8362 14.0088 42.9315 18.2764 43.7804C22.544 44.6293 26.9674 44.1936 30.9874 42.5285C35.0074 40.8633 38.4433 38.0436 40.8607 34.4257C43.2781 30.8078 44.5684 26.5543 44.5684 22.2031C44.5684 16.3684 42.2505 10.7726 38.1247 6.64678C33.9989 2.52098 28.4031 0.203125 22.5684 0.203125ZM33.5684 26.6494C33.5668 28.3871 32.8759 30.0532 31.6471 31.2819C30.4184 32.5106 28.7524 33.2016 27.0147 33.2031H18.1221C16.3846 33.2008 14.719 32.5096 13.4904 31.2811C12.2619 30.0525 11.5707 28.3869 11.5684 26.6494V17.7568C11.5707 16.0194 12.2619 14.3537 13.4904 13.1252C14.719 11.8966 16.3846 11.2054 18.1221 11.2031H27.0147C28.7521 11.2054 30.4177 11.8966 31.6463 13.1252C32.8749 14.3537 33.5661 16.0194 33.5684 17.7568V26.6494Z" fill="#B7BECD"/>
</svg>
