<svg width="45" height="45" viewBox="0 0 45 45" fill="none" xmlns="http://www.w3.org/2000/svg">
<path d="M22.5684 0.203125C18.2172 0.203125 13.9637 1.4934 10.3458 3.91079C6.72794 6.32818 3.90815 9.76411 2.24302 13.7841C0.577892 17.8041 0.142218 22.2275 0.991093 26.4951C1.83997 30.7627 3.93527 34.6827 7.01202 37.7595C10.0888 40.8362 14.0088 42.9315 18.2764 43.7804C22.544 44.6293 26.9674 44.1936 30.9874 42.5285C35.0074 40.8633 38.4433 38.0436 40.8607 34.4257C43.2781 30.8078 44.5684 26.5543 44.5684 22.2031C44.5684 16.3684 42.2505 10.7726 38.1247 6.64678C33.9989 2.52098 28.4031 0.203125 22.5684 0.203125ZM16.9699 32.4592C16.9699 32.6565 16.8916 32.8457 16.7521 32.9852C16.6125 33.1247 16.4233 33.2031 16.226 33.2031H13.0649C12.9671 33.2035 12.8702 33.1845 12.7798 33.1473C12.6894 33.11 12.6072 33.0552 12.538 32.9861C12.4689 32.9169 12.4141 32.8348 12.3769 32.7443C12.3396 32.6539 12.3206 32.557 12.321 32.4592V19.2042C12.321 19.0069 12.3994 18.8176 12.5389 18.6781C12.6784 18.5386 12.8676 18.4602 13.0649 18.4602H16.226C16.4233 18.4602 16.6125 18.5386 16.7521 18.6781C16.8916 18.8176 16.9699 19.0069 16.9699 19.2042V32.4592ZM14.6542 17.2126C14.0595 17.2149 13.4776 17.0407 12.982 16.712C12.4864 16.3834 12.0995 15.9151 11.8702 15.3664C11.6409 14.8178 11.5796 14.2134 11.694 13.6299C11.8084 13.0463 12.0933 12.5098 12.5128 12.0883C12.9323 11.6669 13.4674 11.3793 14.0503 11.2621C14.6333 11.1449 15.238 11.2033 15.7877 11.4299C16.3375 11.6566 16.8077 12.0412 17.1387 12.5352C17.4697 13.0292 17.6467 13.6103 17.6473 14.205C17.6477 14.5996 17.5704 14.9904 17.4197 15.3551C17.2691 15.7197 17.048 16.0512 16.7693 16.3305C16.4906 16.6098 16.1595 16.8314 15.7951 16.9828C15.4307 17.1341 15.0401 17.2122 14.6455 17.2126H14.6542ZM33.5047 32.52C33.5047 32.7012 33.4327 32.8749 33.3046 33.003C33.1765 33.1311 33.0027 33.2031 32.8215 33.2031H29.4202C29.239 33.2031 29.0653 33.1311 28.9371 33.003C28.809 32.8749 28.7371 32.7012 28.7371 32.52V26.3021C28.7371 25.3729 29.0063 22.2494 26.3113 22.2494C24.2213 22.2494 23.7957 24.3973 23.706 25.3613V32.5344C23.7022 32.7121 23.6294 32.8813 23.5029 33.0062C23.3765 33.131 23.2063 33.2017 23.0286 33.2031H19.746C19.6562 33.2035 19.5672 33.1861 19.4841 33.1519C19.4011 33.1177 19.3256 33.0674 19.2621 33.0039C19.1986 32.9404 19.1483 32.8649 19.1141 32.7819C19.0799 32.6988 19.0625 32.6098 19.0628 32.52V19.1463C19.0625 19.0563 19.0799 18.9672 19.114 18.884C19.1482 18.8007 19.1984 18.7251 19.2619 18.6613C19.3254 18.5976 19.4008 18.547 19.4839 18.5125C19.567 18.478 19.656 18.4602 19.746 18.4602H23.0286C23.1197 18.4587 23.2102 18.4753 23.2947 18.5091C23.3793 18.5429 23.4563 18.5932 23.5212 18.657C23.5862 18.7209 23.6378 18.797 23.673 18.881C23.7082 18.965 23.7263 19.0552 23.7263 19.1463V20.3042C24.5021 19.1463 25.6542 18.2402 28.106 18.2402C33.5423 18.2402 33.5105 23.3176 33.5105 26.1052L33.5047 32.52Z" fill="#B7BECD"/>
</svg>
