<svg width="106" height="19" viewBox="0 0 106 19" fill="none" xmlns="http://www.w3.org/2000/svg">
<path d="M34.8593 17.5705C33.9766 17.5705 33.2612 16.853 33.2612 15.9683V2.02814C33.2612 1.14324 33.9767 0.42599 34.8593 0.42599C35.7418 0.42599 36.4573 1.14324 36.4573 2.02814V15.9683C36.4573 16.853 35.7418 17.5705 34.8593 17.5705Z" fill="#262E6C"/>
<path d="M44.128 3.63054H34.8593C33.9766 3.63054 33.2612 2.91316 33.2612 2.02814C33.2612 1.14324 33.9767 0.42599 34.8593 0.42599H44.128C45.0105 0.42599 45.726 1.14324 45.726 2.02814C45.726 2.91316 45.0104 3.63054 44.128 3.63054Z" fill="#262E6C"/>
<path d="M44.128 17.5704H34.8593C33.9766 17.5704 33.2612 16.8529 33.2612 15.9683C33.2612 15.0833 33.9767 14.3658 34.8593 14.3658H44.128C45.0105 14.3658 45.726 15.0834 45.726 15.9683C45.726 16.8529 45.0104 17.5704 44.128 17.5704Z" fill="#262E6C"/>
<path d="M42.7696 10.6008H34.8593C33.9766 10.6008 33.2612 9.88314 33.2612 8.99812C33.2612 8.11334 33.9767 7.39597 34.8593 7.39597H42.7696C43.6522 7.39597 44.3677 8.11334 44.3677 8.99812C44.3677 9.88314 43.6522 10.6008 42.7696 10.6008Z" fill="#E51945"/>
<path d="M15.9943 17.6839C15.1116 17.6839 14.3961 16.9666 14.3961 16.0816V2.14194C14.3961 1.25679 15.1116 0.539547 15.9943 0.539547C16.8768 0.539547 17.5923 1.25679 17.5923 2.14194V16.0816C17.5924 16.9666 16.8768 17.6839 15.9943 17.6839Z" fill="#262E6C"/>
<path d="M22.2908 3.74409H15.9943C15.1116 3.74409 14.3961 3.02647 14.3961 2.14194C14.3961 1.25679 15.1116 0.539547 15.9943 0.539547H22.2908C23.1735 0.539547 23.8888 1.25679 23.8888 2.14194C23.8888 3.02647 23.1735 3.74409 22.2908 3.74409Z" fill="#262E6C"/>
<path d="M22.2879 17.6839H15.9943C15.1116 17.6839 14.3961 16.9666 14.3961 16.0816C14.3961 15.1966 15.1116 14.4791 15.9943 14.4791H22.2879C23.1706 14.4791 23.886 15.1967 23.886 16.0816C23.886 16.9665 23.1706 17.6839 22.2879 17.6839Z" fill="#262E6C"/>
<path d="M28.7036 10.7137C27.8208 10.7137 27.1056 9.99649 27.1056 9.11147C27.1056 6.00153 25.0556 3.74409 22.2313 3.74409C21.3487 3.74409 20.6334 3.02647 20.6334 2.14194C20.6334 1.25679 21.3487 0.539547 22.2313 0.539547C26.8322 0.539547 30.3016 4.22487 30.3016 9.11159C30.3016 9.9965 29.586 10.7137 28.7036 10.7137Z" fill="#262E6C"/>
<path d="M22.2313 17.6839C21.3487 17.6839 20.6334 16.9666 20.6334 16.0816C20.6334 15.1966 21.3487 14.4791 22.2313 14.4791C25.0556 14.4791 27.1056 12.2219 27.1056 9.11143C27.1056 8.22678 27.8209 7.50941 28.7036 7.50941C29.586 7.50941 30.3016 8.22678 30.3016 9.11143C30.3016 13.9987 26.8323 17.6839 22.2313 17.6839Z" fill="#E51945"/>
<path d="M104.403 17.5951C103.95 17.5951 103.499 17.4027 103.183 17.0292L91.3902 3.0893C90.8193 2.41456 90.9022 1.40338 91.5748 0.830734C92.2482 0.258333 93.2564 0.341476 93.8273 1.01634L105.62 14.9563C106.191 15.6311 106.109 16.6419 105.436 17.2147C105.135 17.47 104.768 17.5951 104.403 17.5951Z" fill="#262E6C"/>
<path d="M104.402 17.5951C103.519 17.5951 102.804 16.8775 102.804 15.9928V2.05266C102.804 1.16776 103.519 0.45051 104.402 0.45051C105.285 0.45051 106 1.16776 106 2.05266V15.9928C106 16.8775 105.285 17.5951 104.402 17.5951Z" fill="#E51945"/>
<path d="M92.6088 17.5951C91.7261 17.5951 91.0107 16.8775 91.0107 15.9928V2.05266C91.0107 1.16776 91.7261 0.45051 92.6088 0.45051C93.4915 0.45051 94.2071 1.16776 94.2071 2.05266V15.9928C94.2071 16.8775 93.4913 17.5951 92.6088 17.5951Z" fill="#262E6C"/>
<path d="M1.59803 17.6839C0.715348 17.6839 0 16.9666 0 16.0816V2.14169C0 1.25679 0.715472 0.539547 1.59803 0.539547C2.48059 0.539547 3.19607 1.25679 3.19607 2.14169V16.0817C3.19607 16.9666 2.48059 17.6839 1.59803 17.6839Z" fill="#E51945"/>
<path d="M73.2547 10.7137C72.372 10.7137 71.6567 9.99649 71.6567 9.11146C71.6567 4.23584 75.6128 0.269422 80.4754 0.269422C81.3581 0.269422 82.0737 0.986418 82.0737 1.87157C82.0737 2.75647 81.358 3.47384 80.4754 3.47384C77.3751 3.47384 74.8526 6.00302 74.8526 9.11146C74.8526 9.99649 74.1373 10.7137 73.2547 10.7137Z" fill="#262E6C"/>
<path d="M80.4755 17.9539C75.613 17.9539 71.6567 13.9872 71.6567 9.11144C71.6567 8.22666 72.372 7.50929 73.2547 7.50929C74.1374 7.50929 74.8527 8.22666 74.8527 9.11144C74.8527 12.2201 77.3751 14.7493 80.4756 14.7493C81.3583 14.7493 82.0739 15.4668 82.0739 16.3516C82.0737 17.2365 81.3581 17.9539 80.4755 17.9539Z" fill="#262E6C"/>
<path d="M80.4755 17.9539C79.5928 17.9539 78.8776 17.2365 78.8776 16.3516C78.8776 15.4668 79.5928 14.7493 80.4755 14.7493C81.9688 14.7493 83.4667 14.179 84.4816 13.2238C85.1254 12.6183 86.1367 12.6507 86.7409 13.2959C87.3444 13.9413 87.3127 14.9554 86.6689 15.5608C85.0762 17.0592 82.761 17.9539 80.4755 17.9539Z" fill="#E51945"/>
<path d="M85.482 5.49643C85.0833 5.49643 84.6839 5.34797 84.3737 5.04893C83.3213 4.03314 81.937 3.47396 80.4755 3.47396C79.5928 3.47396 78.8776 2.75659 78.8776 1.87169C78.8776 0.986534 79.5928 0.269538 80.4755 0.269538C82.7675 0.269538 84.939 1.14671 86.59 2.73976C87.2265 3.35329 87.2453 4.36771 86.6335 5.00518C86.3197 5.33226 85.9012 5.49643 85.482 5.49643Z" fill="#262E6C"/>
<path d="M85.5754 15.9945C84.6927 15.9945 83.9771 15.2771 83.9771 14.3923V9.25468C83.9771 8.36978 84.6928 7.65241 85.5754 7.65241C86.4576 7.65241 87.1733 8.36978 87.1733 9.25468V14.3923C87.1733 15.2771 86.4576 15.9945 85.5754 15.9945Z" fill="#262E6C"/>
<path d="M85.5754 10.8571H79.8846C79.0019 10.8571 78.2866 10.1397 78.2866 9.2548C78.2866 8.3699 79.0019 7.65253 79.8846 7.65253H85.5754C86.4576 7.65253 87.1733 8.3699 87.1733 9.2548C87.1733 10.1397 86.4576 10.8571 85.5754 10.8571Z" fill="#262E6C"/>
<path d="M59.6942 14.4762C58.8115 14.4762 58.0961 13.7586 58.0961 12.8739C58.0961 12.4545 58.0961 11.3397 54.1144 10.5065C53.2503 10.3259 52.6961 9.47715 52.8764 8.61082C53.0566 7.74462 53.9031 7.18854 54.7673 7.36966C56.7119 7.7764 58.097 8.28996 59.1273 8.98552C60.9164 10.1933 61.2921 11.7667 61.2921 12.8739C61.2921 13.7587 60.5767 14.4762 59.6942 14.4762Z" fill="#262E6C"/>
<path d="M54.8715 18.1087C54.8578 18.1087 54.8437 18.1087 54.8296 18.1083C52.0816 18.0376 50.1591 17.008 48.6411 16.0101C47.903 15.5248 47.6971 14.5316 48.181 13.7915C48.6651 13.0514 49.6556 12.8448 50.3937 13.3302C51.5929 14.1185 52.9703 14.8548 54.9118 14.9049C55.7941 14.9277 56.4908 15.6632 56.4683 16.5476C56.4457 17.4182 55.7352 18.1087 54.8715 18.1087Z" fill="#262E6C"/>
<path d="M55.0992 18.1117C55.0106 18.1117 54.9209 18.1107 54.8296 18.1083C53.9474 18.0855 53.2506 17.3502 53.2732 16.4657C53.2959 15.5808 54.0311 14.8786 54.9117 14.9049C56.1198 14.9356 57.0402 14.6752 57.5765 14.151C58.0062 13.7313 58.0963 13.225 58.0963 12.874C58.0963 11.9889 58.8117 11.2717 59.6943 11.2717C60.577 11.2717 61.2924 11.9889 61.2924 12.874C61.2924 14.2418 60.7654 15.5101 59.8078 16.4457C59.0211 17.2143 57.5728 18.1117 55.0992 18.1117Z" fill="#262E6C"/>
<path d="M54.4422 10.5406C54.3301 10.5406 54.2162 10.5289 54.1023 10.5042C52.6233 10.1827 51.5287 9.77197 50.6579 9.21216C48.803 8.01974 48.446 6.43218 48.4734 5.31019C48.5128 3.68361 49.0386 2.3982 50.036 1.48974C51.1952 0.434067 52.929 -0.0190417 55.1874 0.144127C56.0676 0.207201 56.7302 0.974433 56.667 1.85684C56.6034 2.73962 55.8391 3.40339 54.9584 3.3402C53.6246 3.24459 52.6653 3.42471 52.185 3.86211C52.0637 3.97218 51.6947 4.30849 51.6685 5.38822C51.6606 5.70995 51.6369 6.68909 54.7794 7.37218C55.6419 7.55953 56.1894 8.41277 56.0023 9.27748C55.8402 10.028 55.1781 10.5406 54.4422 10.5406Z" fill="#262E6C"/>
<path d="M58.8927 4.61488C58.6453 4.61488 58.3947 4.5573 58.1597 4.43539C56.8752 3.76925 55.7982 3.40078 54.9582 3.34032C54.078 3.277 53.4157 2.51002 53.4789 1.62761C53.5423 0.744699 54.3058 0.0801814 55.1872 0.144252C56.4802 0.237242 57.9332 0.710046 59.6281 1.58921C60.4123 1.99583 60.7188 2.96275 60.3137 3.7488C60.0293 4.29902 59.4713 4.61488 58.8927 4.61488Z" fill="#E51945"/>
<path d="M66.4881 17.6839C65.6054 17.6839 64.8901 16.9666 64.8901 16.0816V2.14169C64.8901 1.25679 65.6054 0.539547 66.4881 0.539547C67.3708 0.539547 68.086 1.25679 68.086 2.14169V16.0817C68.086 16.9666 67.3708 17.6839 66.4881 17.6839Z" fill="#E51945"/>
</svg>
