<svg width="150" height="150" viewBox="0 0 150 150" fill="none" xmlns="http://www.w3.org/2000/svg">
<rect width="150" height="150" rx="75" fill="#ACB0D3"/>
<path d="M29.6667 86.1666C30.0833 87.875 29.9167 89.375 29.1667 90.6666C28.4167 91.9166 27.0833 92.7916 25.1667 93.25L21.875 94.0416C19.9583 94.5 18.375 94.3333 17.125 93.5416C15.875 92.75 15.0417 91.5 14.625 89.7916C14.2083 88.0416 14.375 86.5416 15.125 85.2916C15.875 84.0416 17.2083 83.1666 19.125 82.7083L22.4167 81.9166C24.3333 81.4583 25.9167 81.625 27.1667 82.4166C28.4167 83.1666 29.25 84.4166 29.6667 86.1666ZM28.0833 86.5416C27.7917 85.2916 27.1667 84.4166 26.25 83.9166C25.3333 83.4166 24.2083 83.3333 22.875 83.625L19.4583 84.4583C18.125 84.7916 17.1667 85.375 16.5833 86.25C16 87.125 15.875 88.1666 16.1667 89.4166C16.4583 90.6666 17.0833 91.5416 18 92.0416C18.9167 92.5416 20.0417 92.625 21.375 92.3333L24.7917 91.5C26.125 91.1666 27.0833 90.5833 27.6667 89.7083C28.25 88.8333 28.4167 87.7916 28.0833 86.5416Z" fill="#1E2556"/>
<path d="M27.8333 79.125L26.25 79.0417L26.3333 76.9584L14.6667 76.4584L14.5833 78.5417L13 78.4584L13.25 72.6667C13.3333 70.7084 13.875 69.2084 14.9167 68.2084C15.9583 67.1667 17.5 66.7084 19.5417 66.7917L22.2917 66.9167C24.375 67 25.875 67.5834 26.7917 68.7084C27.75 69.8334 28.1667 71.3334 28.0833 73.2917L27.8333 79.125ZM26.375 75.2084L26.4583 73.2917C26.5 71.8334 26.2083 70.75 25.5417 69.9584C24.875 69.2084 23.7917 68.7917 22.2917 68.7084L19.375 68.5834C17.875 68.5 16.75 68.8334 16 69.5417C15.2917 70.25 14.875 71.3334 14.8333 72.75L14.75 74.6667L26.375 75.2084Z" fill="#1E2556"/>
<path d="M28.5417 65.875L27.0417 65.375L27.7083 63.4166L16.625 59.7083L15.9583 61.6667L14.4583 61.1667L16.8333 54.0833C17.125 53.25 17.5 52.5833 18 52.0417C18.5 51.5 19.0833 51.125 19.75 50.9583C20.4167 50.7917 21.0833 50.7917 21.7917 51.0417L21.9583 51.0833C22.625 51.2916 23.125 51.625 23.4583 52C23.7917 52.375 24.0417 52.7917 24.125 53.25C24.25 53.6667 24.2917 54.0833 24.2917 54.4583L24.5833 54.5417C24.7917 54.25 25.0417 53.9167 25.4167 53.6667C25.7917 53.375 26.2083 53.2083 26.7083 53.0833C27.2083 52.9583 27.7917 53.0417 28.4583 53.25L28.6667 53.3333C29.4167 53.5833 30.0417 54 30.4583 54.5417C30.875 55.0833 31.1667 55.75 31.2083 56.4583C31.2917 57.2083 31.1667 57.9583 30.9167 58.7916L28.5417 65.875ZM21.875 59.5833L22.9583 56.3333C23.2083 55.5416 23.25 54.8333 23 54.2083C22.75 53.5833 22.2917 53.1666 21.625 52.9583L21.4167 52.875C20.75 52.6667 20.125 52.7083 19.5417 53.0417C18.9583 53.375 18.5417 53.9583 18.2917 54.7917L17.2083 58.0417L21.875 59.5833ZM28.25 61.7083L29.3333 58.5C29.625 57.625 29.6667 56.875 29.375 56.25C29.125 55.625 28.625 55.2083 27.9167 54.9583L27.75 54.9167C27.0417 54.6667 26.375 54.7083 25.8333 55.0416C25.25 55.375 24.8333 56 24.5417 56.875L23.4583 60.0833L28.25 61.7083Z" fill="#1E2556"/>
<path d="M33.9167 52.2917L21.0417 44.8333L21.9167 43.2917L34.7917 50.75L33.9167 52.2917Z" fill="#1E2556"/>
<path d="M36.5417 47.7917L25.25 38.125L31.2083 31.1667L32.4167 32.2084L27.625 37.7917L31.4167 41.0417L35.8333 35.875L37.0417 36.9167L32.625 42.0834L36.4583 45.375L41.3333 39.7084L42.5417 40.75L36.5417 47.7917Z" fill="#1E2556"/>
<path d="M44.375 39.0833L35.9583 26.8333L40.9167 23.4167C41.6667 22.875 42.4167 22.5833 43.2083 22.4167C43.9583 22.2917 44.6667 22.3333 45.3333 22.625C46 22.875 46.5417 23.3333 47.0417 24.0417L47.1667 24.25C47.7083 25.0417 47.9583 25.8333 47.9167 26.5417C47.8333 27.2917 47.625 27.9167 47.2083 28.4167L47.375 28.6667C47.7917 28.375 48.25 28.2917 48.7083 28.375C49.1667 28.4583 49.5833 28.75 49.9167 29.2917L52.75 33.4167L51.2917 34.4167L48.5833 30.4583C48.3333 30.125 48.0417 29.9167 47.75 29.8333C47.4167 29.7917 47.0833 29.875 46.7083 30.1667L42.4583 33.0833L45.9167 38.125L44.375 39.0833ZM41.4583 31.75L44.7917 29.4583C45.5833 28.9167 46.0833 28.2917 46.25 27.5833C46.4167 26.875 46.25 26.2083 45.7917 25.5L45.7083 25.375C45.2083 24.6667 44.625 24.2917 43.9167 24.1667C43.2083 24.0833 42.4583 24.2917 41.625 24.875L38.2917 27.1667L41.4583 31.75Z" fill="#1E2556"/>
<path d="M54.8333 32.2917L54.0417 30.0833L58.375 17.2916L58.2917 17.0416L50.7083 19.6666L50.1667 18.1666L59.4167 14.9583L60.2083 17.1666L55.875 29.9583L55.9583 30.2083L63.9583 27.4166L64.5 28.9166L54.8333 32.2917Z" fill="#1E2556"/>
<path d="M72.5417 27.875L73.2083 13L78.9167 13.25C79.7917 13.2917 80.5833 13.5 81.2917 13.875C82 14.25 82.5 14.75 82.875 15.4167C83.25 16.0833 83.4167 16.8333 83.375 17.75V18.0417C83.3333 18.9167 83.0833 19.7083 82.6667 20.3333C82.2083 20.9583 81.625 21.4167 80.9167 21.75C80.2083 22.0417 79.4167 22.2083 78.5417 22.1667L74.625 22L74.375 28L72.5417 27.875ZM74.6667 20.3333L78.375 20.5C79.3333 20.5417 80.0833 20.3333 80.6667 19.875C81.25 19.4167 81.5417 18.75 81.5833 17.9167V17.7083C81.625 16.8333 81.375 16.1667 80.8333 15.6667C80.2917 15.1667 79.5833 14.9167 78.5833 14.875L74.875 14.7083L74.6667 20.3333Z" fill="#1E2556"/>
<path d="M84.9583 28.7917L89.5833 14.6667L95.2917 16.5417C96.1667 16.8334 96.875 17.25 97.4583 17.75C98.0417 18.25 98.4167 18.875 98.5833 19.5417C98.7917 20.2084 98.75 20.9584 98.5 21.75L98.4167 21.9584C98.125 22.875 97.6667 23.5417 97.0417 23.9584C96.4167 24.3334 95.7917 24.5417 95.125 24.5417L95.0417 24.8334C95.5417 25 95.875 25.2917 96.0833 25.7084C96.2917 26.125 96.2917 26.625 96.125 27.2084L94.5833 31.9584L92.9167 31.4167L94.4167 26.875C94.5417 26.4584 94.5417 26.125 94.375 25.8334C94.2083 25.5417 93.9167 25.3334 93.5 25.1667L88.625 23.5834L86.75 29.375L84.9583 28.7917ZM89.0417 22L92.9167 23.25C93.8333 23.5417 94.625 23.5417 95.2917 23.2917C95.9583 23 96.4167 22.4584 96.6667 21.6667L96.7083 21.5417C96.9583 20.75 96.9167 20.0417 96.5833 19.4167C96.25 18.7917 95.5833 18.3334 94.625 18.0417L90.75 16.7917L89.0417 22Z" fill="#1E2556"/>
<path d="M97.2917 33.3333L105.417 20.875L113.083 25.875L112.208 27.2083L106.042 23.1667L103.333 27.3333L109 31.0417L108.125 32.375L102.458 28.6667L99.7083 32.9167L105.958 37L105.083 38.3333L97.2917 33.3333Z" fill="#1E2556"/>
<path d="M106.458 39.5833L108.208 38L121.667 36.9167L121.875 36.75L116.458 30.8333L117.625 29.75L124.25 36.9583L122.5 38.5417L109.042 39.625L108.833 39.7917L114.542 46.0417L113.375 47.125L106.458 39.5833Z" fill="#1E2556"/>
<path d="M114.667 49.2083L127.792 42.2083L132.083 50.2916L130.667 51.0417L127.208 44.5416L122.833 46.875L126.042 52.875L124.625 53.625L121.417 47.625L116.958 50L120.5 56.5833L119.083 57.3333L114.667 49.2083Z" fill="#1E2556"/>
<path d="M119.917 59.625L134.458 56.4167L135.208 59.7917L122.917 67.8334L122.958 68.0834L136.375 65.0833L136.75 66.7917L122.25 70L121.5 66.625L133.833 58.5833L133.75 58.2917L120.292 61.2917L119.917 59.625Z" fill="#1E2556"/>
<path d="M122.167 76.8333L135.417 77.5417L135.667 72.75L137.292 72.8333L136.667 84.1667L135.042 84.0833L135.292 79.2917L122.042 78.5833L122.167 76.8333Z" fill="#1E2556"/>
<path d="M119.917 90.3334L133.458 96.5L131.083 101.667C130.708 102.458 130.208 103.125 129.625 103.625C129 104.125 128.333 104.417 127.583 104.542C126.833 104.667 126.042 104.5 125.208 104.125L124.958 104C124.167 103.625 123.542 103.125 123.125 102.458C122.708 101.792 122.5 101.083 122.5 100.292C122.5 99.5 122.667 98.7084 123 97.9167L124.625 94.375L119.167 91.875L119.917 90.3334ZM126.125 95.125L124.583 98.5C124.208 99.375 124.083 100.125 124.292 100.833C124.5 101.542 125 102.042 125.792 102.417L126 102.5C126.792 102.875 127.5 102.875 128.167 102.583C128.833 102.292 129.333 101.708 129.75 100.833L131.292 97.4584L126.125 95.125Z" fill="#1E2556"/>
<path d="M110.75 105.458C111.917 104.125 113.208 103.375 114.667 103.25C116.125 103.125 117.625 103.667 119.125 104.958L121.708 107.167C123.208 108.458 124 109.833 124.083 111.292C124.167 112.75 123.667 114.167 122.5 115.5C121.333 116.875 120.042 117.625 118.542 117.75C117.083 117.875 115.583 117.333 114.083 116.042L111.5 113.833C110 112.542 109.208 111.167 109.125 109.708C109.042 108.208 109.583 106.792 110.75 105.458ZM111.958 106.458C111.125 107.458 110.75 108.458 110.875 109.5C111 110.542 111.583 111.5 112.625 112.417L115.292 114.708C116.333 115.583 117.375 116.042 118.417 116C119.458 115.958 120.417 115.458 121.25 114.458C122.083 113.5 122.417 112.5 122.292 111.458C122.167 110.417 121.583 109.458 120.542 108.542L117.875 106.25C116.833 105.375 115.792 104.917 114.75 104.958C113.708 105 112.792 105.5 111.958 106.458Z" fill="#1E2556"/>
<path d="M104.25 112.583L113.875 124.167L112.333 125.083L103.542 114.333L103.292 114.5L107.917 127.708L105.167 129.333L95.8333 118.875L95.5833 119.042L100.75 131.917L99.2083 132.833L93.75 118.792L96.5 117.167L105.875 127.667L106.125 127.5L101.458 114.208L104.25 112.583Z" fill="#1E2556"/>
<path d="M89.2083 120.042L93.375 134.333L91.6667 134.833L87.5 120.542L89.2083 120.042Z" fill="#1E2556"/>
<path d="M80.5833 121.875L81.875 135.083L86.625 134.625L86.7917 136.25L75.5 137.333L75.3333 135.708L80.0833 135.25L78.7917 122.042L80.5833 121.875Z" fill="#1E2556"/>
<path d="M74.6667 122.583L68.0833 136.667L64.9583 136.25L62.4583 120.875L64.2917 121.125L64.9167 125L71.2083 125.875L72.875 122.292L74.6667 122.583ZM70.5417 127.417L65.1667 126.667L66.5417 135.333L66.8333 135.375L70.5417 127.417Z" fill="#1E2556"/>
<path d="M60.625 120.083L54.8333 133.792L53.2083 133.083L58.375 120.875L51.4583 117.958L52.0833 116.458L60.625 120.083Z" fill="#1E2556"/>
<path d="M50.2917 115.458L41.125 127.167L38.4167 125.042L42.8333 111.042L42.625 110.875L34.125 121.708L32.75 120.625L41.9167 108.917L44.625 111.042L40.1667 125.083L40.4167 125.25L48.9167 114.417L50.2917 115.458Z" fill="#1E2556"/>
<path d="M37.5 103.417L32.9167 106.75L28.5833 116.417L27.375 114.75L30.7917 107.333L30.625 107.083L22.5 108.042L21.2917 106.375L31.8333 105.25L36.4167 101.917L37.5 103.417Z" fill="#1E2556"/>
</svg>
