<svg width="45" height="45" viewBox="0 0 45 45" fill="none" xmlns="http://www.w3.org/2000/svg">
<path d="M19.937 17.9884L26.8004 22.2031L19.937 26.4208V17.9884Z" fill="#B7BECD"/>
<path d="M22.5684 0.203125C18.2172 0.203125 13.9637 1.4934 10.3458 3.91079C6.72794 6.32818 3.90815 9.76411 2.24302 13.7841C0.577892 17.8041 0.142218 22.2275 0.991093 26.4951C1.83997 30.7627 3.93526 34.6827 7.01202 37.7595C10.0888 40.8362 14.0088 42.9315 18.2764 43.7804C22.544 44.6293 26.9674 44.1936 30.9874 42.5285C35.0074 40.8633 38.4433 38.0436 40.8607 34.4257C43.2781 30.8078 44.5684 26.5543 44.5684 22.2031C44.5684 16.3684 42.2505 10.7726 38.1247 6.64678C33.9989 2.52098 28.4031 0.203125 22.5684 0.203125ZM33.0531 27.4976C32.6131 28.8494 31.1571 29.6715 29.8168 29.8597C24.9981 30.3721 20.1386 30.3721 15.3199 29.8597C13.9797 29.6715 12.5236 28.8494 12.0836 27.4976C11.3976 24.0023 11.3976 20.4069 12.0836 16.9115C12.5236 15.5452 13.9797 14.7376 15.3315 14.5494C20.1502 14.0371 25.0097 14.0371 29.8284 14.5494C31.1686 14.7376 32.6247 15.5568 33.0647 16.9115C33.7469 20.4076 33.743 24.003 33.0531 27.4976Z" fill="#B7BECD"/>
</svg>
